<svg class="svg-icon"
    style="width: 1em;height: 1em;vertical-align: middle;fill: currentColor;overflow: hidden;"
    viewBox="0 0 1024 1024" version="1.1" xmlns="http://www.w3.org/2000/svg">
    <path
        fill="#2A347A" opacity="1"
        d="M416.48 137.472c46.192-65.968 143.888-65.968 190.08 0l18.624 26.624a52 52 0 0 0 51.632 21.392l32-5.648c79.296-14 148.384 55.088 134.4 134.4l-5.664 31.984a52 52 0 0 0 21.392 51.632l26.608 18.624c65.984 46.192 65.984 143.888 0 190.08l-26.608 18.624a52 52 0 0 0-21.392 51.632l5.648 32c14 79.296-55.088 148.384-134.4 134.4l-31.984-5.664a52 52 0 0 0-51.632 21.392l-18.64 26.608c-46.176 65.984-143.872 65.984-190.064 0l-18.624-26.608a52 52 0 0 0-51.632-21.392l-32 5.648c-79.296 14-148.384-55.088-134.4-134.4l5.664-31.984a52 52 0 0 0-21.392-51.632l-26.624-18.64c-65.968-46.176-65.968-143.872 0-190.064l26.624-18.624a52 52 0 0 0 21.392-51.632l-5.648-32c-14-79.296 55.088-148.384 134.4-134.4l31.984 5.664a52 52 0 0 0 51.632-21.392l18.624-26.624z m137.632 36.704c-20.688-29.568-64.48-29.568-85.2 0l-18.624 26.624a116 116 0 0 1-115.2 47.712l-31.984-5.648c-35.552-6.272-66.512 24.688-60.24 60.24l5.648 32a116 116 0 0 1-47.712 115.2l-26.624 18.608c-29.568 20.704-29.568 64.512 0 85.2l26.624 18.64a116 116 0 0 1 47.712 115.2l-5.648 31.968c-6.272 35.552 24.688 66.528 60.24 60.256l32-5.648a116 116 0 0 1 115.2 47.712l18.608 26.608c20.704 29.584 64.512 29.584 85.2 0l18.64-26.608a116 116 0 0 1 115.2-47.712l31.968 5.648c35.552 6.272 66.528-24.704 60.256-60.256l-5.648-31.984a116 116 0 0 1 47.712-115.2l26.608-18.624c29.584-20.688 29.584-64.48 0-85.2l-26.608-18.624a116 116 0 0 1-47.712-115.2l5.648-31.984c6.272-35.552-24.704-66.512-60.256-60.24l-31.984 5.648a116 116 0 0 1-115.2-47.712l-18.624-26.624zM393.52 381.52a28 28 0 1 0 0 56 28 28 0 0 0 0-56z m-92 28a92 92 0 1 1 184 0 92 92 0 0 1-184 0z m396.64-78.624a32 32 0 0 1 0 45.248L380.128 694.144a32 32 0 0 1-45.248-45.248L652.896 330.88a32 32 0 0 1 45.248 0z m-64.64 290.624a28 28 0 1 0 0 56 28 28 0 0 0 0-56z m-92 28a92 92 0 1 1 184 0 92 92 0 0 1-184 0z" />
</svg>